<svg width="525" height="107" viewBox="0 0 525 107" fill="none" xmlns="http://www.w3.org/2000/svg">
<path d="M88.96 16.02C74.98 16.02 66.01 25.06 66.01 36.38C66.01 50.44 75.43 58.19 88.96 58.19C102.48 58.19 111.83 50.44 111.83 36.38C111.84 25.06 102.95 16.02 88.96 16.02ZM88.96 52.95C78.55 52.95 72.17 46.64 72.17 37.14C72.17 29.92 76.96 21.26 88.96 21.26C100.97 21.26 105.68 29.92 105.68 37.14C105.68 46.64 99.37 52.95 88.96 52.95Z" fill="white" stroke="white" stroke-width="0.1315" stroke-miterlimit="10"/>
<path d="M122.75 25.52V17.24H116.6V56.98H122.75V33.19C122.98 32.05 129.28 21.94 138.02 21.94C140.68 21.94 142.2 22.4 142.96 22.47V16.31C141.82 16.08 140.68 16.01 139.31 16.01C131.33 16.02 126.32 21.49 122.75 25.52Z" fill="white" stroke="white" stroke-width="0.1315" stroke-miterlimit="10"/>
<path d="M189.99 1.72998H183.84V22.7C178.37 18.67 174.27 16.01 166.06 16.01C149.04 16.01 143.26 28.24 143.26 37.44C143.26 46.48 149.64 58.18 164.99 58.18C174.11 58.18 178.14 55.6 184.14 50.73L184.9 56.96H190.45C190.37 55.74 189.99 50.58 189.99 49.51V1.72998V1.72998ZM183.84 44.51C180.04 48.61 173.2 52.95 166.59 52.95C155.8 52.95 149.42 45.8 149.42 37.6C149.42 25.52 158.23 21.26 166.44 21.26C175.03 21.26 180.19 25.29 183.84 29.09V44.51V44.51Z" fill="white" stroke="white" stroke-width="0.1315" stroke-miterlimit="10"/>
<path d="M218.13 16.08C204.15 16.08 195.18 25.12 195.18 36.44C195.18 50.5 204.6 58.25 218.13 58.25C231.66 58.25 241 50.5 241 36.44C241 25.12 232.11 16.08 218.13 16.08ZM218.13 53.01C207.72 53.01 201.34 46.7 201.34 37.2C201.34 29.98 206.13 21.32 218.13 21.32C230.13 21.32 234.85 29.98 234.85 37.2C234.85 46.71 228.54 53.01 218.13 53.01Z" fill="white" stroke="white" stroke-width="0.1315" stroke-miterlimit="10"/>
<path d="M269.04 16.02C261.97 16.02 256.5 19.36 252.32 23.01V17.23H246.17V56.97H252.32V29.24C255.89 25.44 261.52 21.26 268.28 21.26C272.61 21.26 279.45 22.55 279.3 31.98V56.98H285.45V30.76C285.45 17.16 273.98 16.02 269.04 16.02Z" fill="white" stroke="white" stroke-width="0.1315" stroke-miterlimit="10"/>
<path d="M379 25.52V17.24H372.85V56.98H379V33.19C379.23 32.05 385.53 21.94 394.28 21.94C396.94 21.94 398.46 22.4 399.22 22.47V16.31C398.08 16.08 396.94 16.01 395.57 16.01C387.58 16.02 382.57 21.49 379 25.52Z" fill="white" stroke="white" stroke-width="0.1315" stroke-miterlimit="10"/>
<path d="M443.58 28.86C443.58 18.68 433.24 16.02 424.2 16.02C410.37 16.02 406.04 21.72 403.76 24.53L408.4 27.72C410.37 25.44 414.1 21.03 424.66 21.03C430.97 21.03 437.43 23.08 437.43 28.48V30C421.93 31.82 401.34 32.35 401.34 46.11C401.34 56.37 410.99 58.19 417.52 58.19C425.12 58.19 431.58 55.91 437.35 52.19C437.35 53.78 437.81 55.76 438.11 56.98H444.27C443.89 54.85 443.59 53.18 443.59 50.82V28.86H443.58ZM437.42 46.94C433.47 49.07 425.8 53.17 417.21 53.17C414.17 53.17 407.18 52.33 407.18 46.1C407.18 38.43 419.34 36.76 437.42 35.01V46.94V46.94Z" fill="white" stroke="white" stroke-width="0.1315" stroke-miterlimit="10"/>
<path d="M461.29 46.49V22.48H477.1V17.24H461.29V4.01001H455.13V17.23H446.7V22.47H455.13V47.09C455.13 50.28 455.13 58.19 468.13 58.19C470.64 58.19 473.75 57.73 478.16 57.05V51.73C474.82 52.42 472.38 52.95 469.42 52.95C463.19 52.95 461.29 50.82 461.29 46.49Z" fill="white" stroke="white" stroke-width="0.1315" stroke-miterlimit="10"/>
<path d="M523.58 50.82V28.86C523.58 18.68 513.25 16.02 504.21 16.02C490.38 16.02 486.05 21.72 483.77 24.53L488.4 27.72C490.38 25.44 494.1 21.03 504.66 21.03C510.97 21.03 517.43 23.08 517.43 28.48V30C501.93 31.82 481.34 32.35 481.34 46.11C481.34 56.37 490.99 58.19 497.52 58.19C505.12 58.19 511.58 55.91 517.35 52.19C517.35 53.78 517.81 55.76 518.11 56.98H524.26C523.89 54.85 523.58 53.17 523.58 50.82ZM517.43 46.94C513.48 49.07 505.8 53.17 497.22 53.17C494.18 53.17 487.19 52.33 487.19 46.1C487.19 38.43 499.35 36.76 517.43 35.01V46.94Z" fill="white" stroke="white" stroke-width="0.1315" stroke-miterlimit="10"/>
<path d="M333.1 1.72998L350.53 36.69H320.89L328.71 21.02L325.25 14.09L303.19 56.97H310.64L317.85 42.61H353.49L360.64 56.97H368.16L339.82 1.72998H333.1Z" fill="white" stroke="white" stroke-width="0.1315" stroke-miterlimit="10"/>
<path d="M7.35001 30.3C7.35001 14.57 16.24 5.97999 31.74 5.97999C39.19 5.97999 49.37 8.64 53.7 18.52L59.32 15.56C55.22 6.28999 45.12 0.369995 31.97 0.369995C13.35 0.369995 0.51001 10.47 0.51001 29.47C0.51001 45.5 10.62 58.34 32.04 58.34C35.83 58.34 39.01 57.91 41.72 57.19V50.91C38.74 51.93 35.51 52.42 32.35 52.42C15.94 52.42 7.35001 42.99 7.35001 30.3Z" fill="white" stroke="white" stroke-width="0.1315" stroke-miterlimit="10"/>
<path d="M31.67 36.08H54.23V57.43H60.16V30.15H31.67V36.08Z" fill="white" stroke="white" stroke-width="0.1315" stroke-miterlimit="10"/>
<path d="M22.06 100.53L13.73 76.25H9.13V105.92H12.05V80.5L20.76 105.79L20.8 105.92H23.39L32.08 80.51V105.92H35V76.25H30.4L22.06 100.53Z" fill="#92C83E"/>
<path d="M54.19 75.53C45.93 75.53 40.59 81.71 40.59 91.27C40.59 96.11 42.07 100.12 44.87 102.89C47.32 105.31 50.62 106.64 54.19 106.64C57.75 106.64 61.06 105.31 63.5 102.89C66.3 100.12 67.78 96.1 67.78 91.27C67.79 81.71 62.45 75.53 54.19 75.53ZM64.59 90.62C64.59 96.67 61.86 103.13 54.2 103.13C46.54 103.13 43.8 96.67 43.8 90.62C43.8 83.71 48.07 78.88 54.2 78.88C60.31 78.88 64.59 83.71 64.59 90.62Z" fill="#92C83E"/>
<path d="M94.36 99.95L77.66 76.33L77.6 76.25H73.39V105.92H76.4V80.16L94.39 105.84L94.44 105.92H97.49V76.25H94.36V99.95Z" fill="#92C83E"/>
<path d="M102.09 79.76H113.14V105.92H116.28V79.76H127.33V76.25H102.09V79.76Z" fill="#92C83E"/>
<path d="M141.88 94.83H151.15C150.81 98.99 147.98 103.13 142.34 103.13C136.06 103.13 132.17 98.71 132.17 91.59C132.17 83.39 135.69 78.88 142.09 78.88C144.1 78.88 149 79.52 151.01 85.4L151.09 85.63L153.74 83.85L153.69 83.72C151.92 78.6 147.62 75.54 142.18 75.54C133.9 75.54 128.96 81.38 128.96 91.16C128.96 100.72 134.04 106.66 142.21 106.66C147.26 106.66 149.77 104.3 151.22 102.31V106.18H154.04V91.32H141.87V94.83H141.88Z" fill="#92C83E"/>
<path d="M172.22 75.53C163.96 75.53 158.62 81.71 158.62 91.27C158.62 96.11 160.1 100.12 162.9 102.89C165.35 105.31 168.65 106.64 172.21 106.64C175.77 106.64 179.08 105.31 181.53 102.89C184.33 100.12 185.81 96.1 185.81 91.27C185.82 81.71 180.48 75.53 172.22 75.53ZM182.62 90.62C182.62 96.67 179.89 103.13 172.23 103.13C164.57 103.13 161.83 96.67 161.83 90.62C161.83 83.71 166.1 78.88 172.23 78.88C178.34 78.88 182.62 83.71 182.62 90.62Z" fill="#92C83E"/>
<path d="M204.36 100.53L196.02 76.25H191.42V105.92H194.34V80.5L203.05 105.79L203.09 105.92H205.68L214.37 80.5V105.92H217.29V76.25H212.69L204.36 100.53Z" fill="#92C83E"/>
<path d="M227.42 92.26H242.16V88.74H227.42V79.76H245.06V76.25H224.29V105.92H245.43V102.4H227.42V92.26Z" fill="#92C83E"/>
<path d="M272.64 84.6199C272.64 79.0699 269.55 76.2599 263.45 76.2599H250.04V105.92H253.18V92.9399H261.89L269.26 105.91H273.12L265.55 92.8299C268.89 92.5299 272.64 90.2199 272.64 84.6199ZM253.18 79.7599H262.82C267.02 79.7599 269.63 80.5699 269.63 84.5699C269.63 88.6099 267.03 89.4199 262.82 89.4199H253.18V79.7599Z" fill="#92C83E"/>
<path d="M288.82 90.41L279.35 76.25H275.28L287.25 93.94V105.92H290.39V93.94L302.17 76.54L302.36 76.25H298.3L288.82 90.41Z" fill="#92C83E"/>
<path d="M341.98 90.25C343.39 89.37 345.29 87.97 345.29 84.09C345.29 76.25 338.71 76.25 336.23 76.25H322.79V105.91H334.69C338.67 105.91 346.08 105.91 346.08 97.51C346.08 92.82 343.47 91.09 341.98 90.25ZM335.47 88.74H325.93V79.6H334.53C338.62 79.6 342.15 79.6 342.15 84.13C342.15 87.28 340.03 88.74 335.47 88.74ZM325.93 92.1H336.8C340.89 92.1 342.88 93.83 342.88 97.4C342.88 101.82 339.65 102.41 336.48 102.41H325.93V92.1Z" fill="#92C83E"/>
<path d="M365.65 76.25H362L350.08 105.91H353.56L356.55 98.29H371.06L374.02 105.91H377.54L365.7 76.37L365.65 76.25ZM369.7 94.79H357.96L363.83 79.73L369.7 94.79Z" fill="#92C83E"/>
<path d="M405.69 84.6199C405.69 79.0699 402.6 76.2599 396.5 76.2599H383.09V105.92H386.23V92.9399H394.94L402.25 105.82L402.3 105.91H406.16L398.59 92.8299C401.94 92.5299 405.69 90.2199 405.69 84.6199ZM386.23 79.7599H395.87C400.07 79.7599 402.68 80.5699 402.68 84.5699C402.68 88.6099 400.08 89.4199 395.87 89.4199H386.23V79.7599Z" fill="#92C83E"/>
<path d="M433.88 99.95L417.18 76.33L417.12 76.25H412.91V105.92H415.92V80.16L433.91 105.84L433.97 105.92H437.02V76.25H433.88V99.95Z" fill="#92C83E"/>
<path d="M448.25 92.26H462.99V88.74H448.25V79.76H465.88V76.25H445.11V105.92H466.26V102.4H448.25V92.26Z" fill="#92C83E"/>
<path d="M470.65 79.76H481.7V105.92H484.84V79.76H495.89V76.25H470.65V79.76Z" fill="#92C83E"/>
<path d="M499.17 76.25V79.76H510.22V105.92H513.36V79.76H524.41V76.25H499.17Z" fill="#92C83E"/>
</svg>
