<svg width="525" height="108" viewBox="0 0 525 108" fill="none" xmlns="http://www.w3.org/2000/svg">
<path d="M89.45 16.65C75.47 16.65 66.5 25.69 66.5 37.01C66.5 51.07 75.92 58.82 89.45 58.82C102.97 58.82 112.32 51.07 112.32 37.01C112.33 25.69 103.44 16.65 89.45 16.65ZM89.45 53.58C79.04 53.58 72.66 47.27 72.66 37.77C72.66 30.55 77.45 21.89 89.45 21.89C101.46 21.89 106.17 30.55 106.17 37.77C106.17 47.27 99.86 53.58 89.45 53.58Z" fill="#003057" stroke="#003057" stroke-width="0.1315" stroke-miterlimit="10"/>
<path d="M123.24 26.15V17.87H117.09V57.61H123.24V33.82C123.47 32.68 129.77 22.57 138.51 22.57C141.17 22.57 142.69 23.03 143.45 23.1V16.94C142.31 16.71 141.17 16.64 139.8 16.64C131.82 16.65 126.81 22.12 123.24 26.15Z" fill="#003057" stroke="#003057" stroke-width="0.1315" stroke-miterlimit="10"/>
<path d="M190.48 2.35999H184.33V23.33C178.86 19.3 174.76 16.64 166.55 16.64C149.53 16.64 143.75 28.87 143.75 38.07C143.75 47.11 150.13 58.81 165.48 58.81C174.6 58.81 178.63 56.23 184.63 51.36L185.39 57.59H190.94C190.86 56.37 190.48 51.21 190.48 50.14V2.35999V2.35999ZM184.33 45.14C180.53 49.24 173.69 53.58 167.08 53.58C156.29 53.58 149.91 46.43 149.91 38.23C149.91 26.15 158.72 21.89 166.93 21.89C175.52 21.89 180.68 25.92 184.33 29.72V45.14V45.14Z" fill="#003057" stroke="#003057" stroke-width="0.1315" stroke-miterlimit="10"/>
<path d="M218.62 16.71C204.64 16.71 195.67 25.75 195.67 37.07C195.67 51.13 205.09 58.88 218.62 58.88C232.15 58.88 241.49 51.13 241.49 37.07C241.49 25.75 232.6 16.71 218.62 16.71ZM218.62 53.64C208.21 53.64 201.83 47.33 201.83 37.83C201.83 30.61 206.62 21.95 218.62 21.95C230.62 21.95 235.34 30.61 235.34 37.83C235.34 47.34 229.03 53.64 218.62 53.64Z" fill="#003057" stroke="#003057" stroke-width="0.1315" stroke-miterlimit="10"/>
<path d="M269.53 16.65C262.46 16.65 256.99 19.99 252.81 23.64V17.86H246.66V57.6H252.81V29.87C256.38 26.07 262.01 21.89 268.77 21.89C273.1 21.89 279.94 23.18 279.79 32.61V57.61H285.94V31.39C285.94 17.79 274.47 16.65 269.53 16.65Z" fill="#003057" stroke="#003057" stroke-width="0.1315" stroke-miterlimit="10"/>
<path d="M379.49 26.15V17.87H373.34V57.61H379.49V33.82C379.72 32.68 386.02 22.57 394.77 22.57C397.43 22.57 398.95 23.03 399.71 23.1V16.94C398.57 16.71 397.43 16.64 396.06 16.64C388.07 16.65 383.06 22.12 379.49 26.15Z" fill="#003057" stroke="#003057" stroke-width="0.1315" stroke-miterlimit="10"/>
<path d="M444.07 29.49C444.07 19.31 433.73 16.65 424.69 16.65C410.86 16.65 406.53 22.35 404.25 25.16L408.89 28.35C410.86 26.07 414.59 21.66 425.15 21.66C431.46 21.66 437.92 23.71 437.92 29.11V30.63C422.42 32.45 401.83 32.98 401.83 46.74C401.83 57 411.48 58.82 418.01 58.82C425.61 58.82 432.07 56.54 437.84 52.82C437.84 54.41 438.3 56.39 438.6 57.61H444.76C444.38 55.48 444.08 53.81 444.08 51.45V29.49H444.07ZM437.91 47.57C433.96 49.7 426.29 53.8 417.7 53.8C414.66 53.8 407.67 52.96 407.67 46.73C407.67 39.06 419.83 37.39 437.91 35.64V47.57V47.57Z" fill="#003057" stroke="#003057" stroke-width="0.1315" stroke-miterlimit="10"/>
<path d="M461.78 47.12V23.11H477.59V17.87H461.78V4.64001H455.62V17.86H447.19V23.1H455.62V47.72C455.62 50.91 455.62 58.82 468.62 58.82C471.13 58.82 474.24 58.36 478.65 57.68V52.36C475.31 53.05 472.87 53.58 469.91 53.58C463.68 53.58 461.78 51.45 461.78 47.12Z" fill="#003057" stroke="#003057" stroke-width="0.1315" stroke-miterlimit="10"/>
<path d="M524.07 51.45V29.49C524.07 19.31 513.74 16.65 504.7 16.65C490.87 16.65 486.54 22.35 484.26 25.16L488.89 28.35C490.87 26.07 494.59 21.66 505.15 21.66C511.46 21.66 517.92 23.71 517.92 29.11V30.63C502.42 32.45 481.83 32.98 481.83 46.74C481.83 57 491.48 58.82 498.01 58.82C505.61 58.82 512.07 56.54 517.84 52.82C517.84 54.41 518.3 56.39 518.6 57.61H524.75C524.38 55.48 524.07 53.8 524.07 51.45ZM517.92 47.57C513.97 49.7 506.29 53.8 497.71 53.8C494.67 53.8 487.68 52.96 487.68 46.73C487.68 39.06 499.84 37.39 517.92 35.64V47.57Z" fill="#003057" stroke="#003057" stroke-width="0.1315" stroke-miterlimit="10"/>
<path d="M333.59 2.35999L351.02 37.32H321.38L329.2 21.65L325.74 14.72L303.68 57.6H311.13L318.34 43.24H353.98L361.13 57.6H368.65L340.31 2.35999H333.59Z" fill="#003057" stroke="#003057" stroke-width="0.1315" stroke-miterlimit="10"/>
<path d="M7.84 30.93C7.84 15.2 16.73 6.61 32.23 6.61C39.68 6.61 49.86 9.27 54.19 19.15L59.81 16.19C55.71 6.92 45.61 1 32.46 1C13.84 1 1 11.1 1 30.1C1 46.13 11.11 58.97 32.53 58.97C36.32 58.97 39.5 58.54 42.21 57.82V51.54C39.23 52.56 36 53.05 32.84 53.05C16.43 53.05 7.84 43.62 7.84 30.93Z" fill="#003057" stroke="#003057" stroke-width="0.1315" stroke-miterlimit="10"/>
<path d="M32.16 36.71H54.72V58.06H60.65V30.78H32.16V36.71Z" fill="#003057" stroke="#003057" stroke-width="0.1315" stroke-miterlimit="10"/>
<path d="M22.55 101.16L14.22 76.88H9.62V106.55H12.54V81.13L21.25 106.42L21.29 106.55H23.88L32.57 81.14V106.55H35.49V76.88H30.89L22.55 101.16Z" fill="#92C83E"/>
<path d="M54.68 76.16C46.42 76.16 41.08 82.34 41.08 91.9C41.08 96.74 42.56 100.75 45.36 103.52C47.81 105.94 51.11 107.27 54.68 107.27C58.24 107.27 61.55 105.94 63.99 103.52C66.79 100.75 68.27 96.73 68.27 91.9C68.28 82.34 62.94 76.16 54.68 76.16ZM65.08 91.25C65.08 97.3 62.35 103.76 54.69 103.76C47.03 103.76 44.29 97.3 44.29 91.25C44.29 84.34 48.56 79.51 54.69 79.51C60.8 79.51 65.08 84.34 65.08 91.25Z" fill="#92C83E"/>
<path d="M94.85 100.58L78.15 76.96L78.09 76.88H73.88V106.55H76.89V80.79L94.88 106.47L94.93 106.55H97.98V76.88H94.85V100.58Z" fill="#92C83E"/>
<path d="M102.58 80.39H113.63V106.55H116.77V80.39H127.82V76.88H102.58V80.39Z" fill="#92C83E"/>
<path d="M142.37 95.46H151.64C151.3 99.62 148.47 103.76 142.83 103.76C136.55 103.76 132.66 99.34 132.66 92.22C132.66 84.02 136.18 79.51 142.58 79.51C144.59 79.51 149.49 80.15 151.5 86.03L151.58 86.26L154.23 84.48L154.18 84.35C152.41 79.23 148.11 76.17 142.67 76.17C134.39 76.17 129.45 82.01 129.45 91.79C129.45 101.35 134.53 107.29 142.7 107.29C147.75 107.29 150.26 104.93 151.71 102.94V106.81H154.53V91.95H142.36V95.46H142.37Z" fill="#92C83E"/>
<path d="M172.71 76.16C164.45 76.16 159.11 82.34 159.11 91.9C159.11 96.74 160.59 100.75 163.39 103.52C165.84 105.94 169.14 107.27 172.7 107.27C176.26 107.27 179.57 105.94 182.02 103.52C184.82 100.75 186.3 96.73 186.3 91.9C186.31 82.34 180.97 76.16 172.71 76.16ZM183.11 91.25C183.11 97.3 180.38 103.76 172.72 103.76C165.06 103.76 162.32 97.3 162.32 91.25C162.32 84.34 166.59 79.51 172.72 79.51C178.83 79.51 183.11 84.34 183.11 91.25Z" fill="#92C83E"/>
<path d="M204.85 101.16L196.51 76.88H191.91V106.55H194.83V81.13L203.54 106.42L203.58 106.55H206.17L214.86 81.13V106.55H217.78V76.88H213.18L204.85 101.16Z" fill="#92C83E"/>
<path d="M227.91 92.89H242.65V89.37H227.91V80.39H245.55V76.88H224.78V106.55H245.92V103.03H227.91V92.89Z" fill="#92C83E"/>
<path d="M273.13 85.25C273.13 79.7 270.04 76.89 263.94 76.89H250.53V106.55H253.67V93.57H262.38L269.75 106.54H273.61L266.04 93.46C269.38 93.16 273.13 90.85 273.13 85.25ZM253.67 80.39H263.31C267.51 80.39 270.12 81.2 270.12 85.2C270.12 89.24 267.52 90.0499 263.31 90.0499H253.67V80.39Z" fill="#92C83E"/>
<path d="M289.31 91.04L279.84 76.88H275.77L287.74 94.57V106.55H290.88V94.57L302.66 77.17L302.85 76.88H298.79L289.31 91.04Z" fill="#92C83E"/>
<path d="M342.47 90.88C343.88 90 345.78 88.6 345.78 84.72C345.78 76.88 339.2 76.88 336.72 76.88H323.28V106.54H335.18C339.16 106.54 346.57 106.54 346.57 98.14C346.57 93.45 343.96 91.72 342.47 90.88ZM335.96 89.37H326.42V80.23H335.02C339.11 80.23 342.64 80.23 342.64 84.76C342.64 87.91 340.52 89.37 335.96 89.37ZM326.42 92.73H337.29C341.38 92.73 343.37 94.46 343.37 98.03C343.37 102.45 340.14 103.04 336.97 103.04H326.42V92.73Z" fill="#92C83E"/>
<path d="M366.14 76.88H362.49L350.57 106.54H354.05L357.04 98.92H371.55L374.51 106.54H378.03L366.19 77L366.14 76.88ZM370.19 95.42H358.45L364.32 80.36L370.19 95.42Z" fill="#92C83E"/>
<path d="M406.18 85.25C406.18 79.7 403.09 76.89 396.99 76.89H383.58V106.55H386.72V93.57H395.43L402.74 106.45L402.79 106.54H406.65L399.08 93.46C402.43 93.16 406.18 90.85 406.18 85.25ZM386.72 80.39H396.36C400.56 80.39 403.17 81.2 403.17 85.2C403.17 89.24 400.57 90.0499 396.36 90.0499H386.72V80.39Z" fill="#92C83E"/>
<path d="M434.37 100.58L417.67 76.96L417.61 76.88H413.4V106.55H416.41V80.79L434.4 106.47L434.46 106.55H437.51V76.88H434.37V100.58Z" fill="#92C83E"/>
<path d="M448.74 92.89H463.48V89.37H448.74V80.39H466.37V76.88H445.6V106.55H466.75V103.03H448.74V92.89Z" fill="#92C83E"/>
<path d="M471.14 80.39H482.19V106.55H485.33V80.39H496.38V76.88H471.14V80.39Z" fill="#92C83E"/>
<path d="M499.66 76.88V80.39H510.71V106.55H513.85V80.39H524.9V76.88H499.66Z" fill="#92C83E"/>
</svg>
